<?xml version="1.0" encoding="UTF-8"?>
<!DOCTYPE svg PUBLIC "-//W3C//DTD SVG 1.1//EN" "http://www.w3.org/Graphics/SVG/1.1/DTD/svg11.dtd">
<svg xmlns="http://www.w3.org/2000/svg" version="1.1" width="500px" height="500px" style="shape-rendering:geometricPrecision; text-rendering:geometricPrecision; image-rendering:optimizeQuality; fill-rule:evenodd; clip-rule:evenodd" xmlns:xlink="http://www.w3.org/1999/xlink">
<g><path style="opacity:1" fill="#fefefe" d="M -0.5,-0.5 C 166.167,-0.5 332.833,-0.5 499.5,-0.5C 499.5,166.167 499.5,332.833 499.5,499.5C 332.833,499.5 166.167,499.5 -0.5,499.5C -0.5,332.833 -0.5,166.167 -0.5,-0.5 Z"/></g>
<g><path style="opacity:1" fill="#4cbbff" d="M 236.5,129.5 C 237.665,130.496 238.332,131.829 238.5,133.5C 237.205,136.716 236.538,140.049 236.5,143.5C 234.833,143.5 233.167,143.5 231.5,143.5C 231.5,150.833 231.5,158.167 231.5,165.5C 228.102,165.82 224.768,165.487 221.5,164.5C 220.873,163.583 220.539,162.583 220.5,161.5C 220.5,160.833 220.833,160.5 221.5,160.5C 223.833,160.5 226.167,160.5 228.5,160.5C 228.5,153.167 228.5,145.833 228.5,138.5C 230.167,138.5 231.833,138.5 233.5,138.5C 233.517,136.435 233.85,134.435 234.5,132.5C 235.167,131.5 235.833,130.5 236.5,129.5 Z"/></g>
<g><path style="opacity:1" fill="#fbfdff" d="M 234.5,132.5 C 233.85,134.435 233.517,136.435 233.5,138.5C 231.833,138.5 230.167,138.5 228.5,138.5C 228.5,145.833 228.5,153.167 228.5,160.5C 226.167,160.5 223.833,160.5 221.5,160.5C 221.5,153.167 221.5,145.833 221.5,138.5C 219.833,138.5 218.167,138.5 216.5,138.5C 216.993,136.194 217.326,133.861 217.5,131.5C 222.201,131.648 226.868,131.315 231.5,130.5C 233.03,130.64 234.03,131.307 234.5,132.5 Z"/></g>
<g><path style="opacity:1" fill="#88d1ff" d="M 243.5,135.5 C 241.122,139.466 239.622,143.799 239,148.5C 237.698,143.121 239.198,138.788 243.5,135.5 Z"/></g>
<g><path style="opacity:1" fill="#7bccff" d="M 236.5,129.5 C 235.833,130.5 235.167,131.5 234.5,132.5C 234.03,131.307 233.03,130.64 231.5,130.5C 226.868,131.315 222.201,131.648 217.5,131.5C 217.326,133.861 216.993,136.194 216.5,138.5C 218.167,138.5 219.833,138.5 221.5,138.5C 221.5,145.833 221.5,153.167 221.5,160.5C 220.833,160.5 220.5,160.833 220.5,161.5C 219.51,155.69 219.177,149.69 219.5,143.5C 216.459,143.621 214.792,142.121 214.5,139C 215.406,136.209 216.073,133.376 216.5,130.5C 221.758,130.605 226.924,129.938 232,128.5C 233.707,128.508 235.207,128.842 236.5,129.5 Z"/></g>
<g><path style="opacity:1" fill="#3db7fe" d="M 395.5,150.5 C 394.501,193.33 394.168,236.33 394.5,279.5C 397.059,279.802 399.393,279.468 401.5,278.5C 415.716,278.829 428.216,274.496 439,265.5C 441.361,261.433 444.194,257.767 447.5,254.5C 448.372,256.466 448.205,258.466 447,260.5C 438.41,276.394 424.91,284.561 406.5,285C 380.496,286.949 354.496,286.949 328.5,285C 283.618,276.428 262.284,249.262 264.5,203.5C 264.5,203.167 264.5,202.833 264.5,202.5C 264.517,200.435 264.85,198.435 265.5,196.5C 265.5,196.167 265.5,195.833 265.5,195.5C 270.793,171.361 284.793,154.194 307.5,144C 313.63,141.551 319.963,139.884 326.5,139C 354.506,138.167 382.506,138.333 410.5,139.5C 403.061,140.035 398.061,143.701 395.5,150.5 Z"/></g>
<g><path style="opacity:1" fill="#57bfff" d="M 251.5,138.5 C 257.629,137.555 261.296,140.055 262.5,146C 261.296,152.106 257.629,154.439 251.5,153C 246.203,148.215 246.203,143.382 251.5,138.5 Z"/></g>
<g><path style="opacity:1" fill="#fbfdff" d="M 253.5,143.5 C 260.536,142.603 262.203,145.103 258.5,151C 254.642,153.54 251.976,152.707 250.5,148.5C 250.757,146.308 251.757,144.641 253.5,143.5 Z"/></g>
<g><path style="opacity:1" fill="#5bbfff" d="M 243.5,135.5 C 251.766,127.44 259.932,127.773 268,136.5C 274.857,146.8 273.69,155.967 264.5,164C 250.73,168.181 242.563,163.348 240,149.5C 243.699,158.934 250.532,162.434 260.5,160C 269.7,154.574 271.867,147.074 267,137.5C 259.681,130.318 251.848,129.651 243.5,135.5 Z"/></g>
<g><path style="opacity:1" fill="#3db7fe" d="M 231.5,195.5 C 231.263,196.791 231.596,197.791 232.5,198.5C 232.833,199.833 233.167,201.167 233.5,202.5C 233.5,202.833 233.5,203.167 233.5,203.5C 237.975,228.662 232.141,250.995 216,270.5C 203.645,282.593 188.812,289.76 171.5,292C 143.827,292.833 116.161,292.667 88.5,291.5C 93.8687,290.771 98.3687,288.438 102,284.5C 103.009,282.975 103.509,281.308 103.5,279.5C 104.499,237.003 104.832,194.337 104.5,151.5C 100.629,151.185 96.9619,151.518 93.5,152.5C 80.5724,152.418 69.4057,156.752 60,165.5C 57.6392,169.567 54.8059,173.233 51.5,176.5C 50.3861,175.277 50.2195,173.944 51,172.5C 57.4988,158.016 68.6655,149.516 84.5,147C 114.817,143.916 145.15,143.916 175.5,147C 203.633,152.303 222.299,168.47 231.5,195.5 Z"/></g>
<g><path style="opacity:1" fill="#fdfdfd" d="M 332.5,145.5 C 348.5,145.5 364.5,145.5 380.5,145.5C 380.5,189.833 380.5,234.167 380.5,278.5C 363.833,278.5 347.167,278.5 330.5,278.5C 305.704,274.21 289.871,259.876 283,235.5C 280.938,224.597 280.105,213.597 280.5,202.5C 289.173,202.334 297.84,202.5 306.5,203C 311.527,204.853 314.527,208.353 315.5,213.5C 315.5,215.833 315.5,218.167 315.5,220.5C 316.5,220.5 317.5,220.5 318.5,220.5C 318.832,210.415 318.499,201.082 317.5,192.5C 305.641,194.96 293.641,195.96 281.5,195.5C 286.699,166.633 303.699,149.966 332.5,145.5 Z"/></g>
<g><path style="opacity:1" fill="#b9e5ff" d="M 332.5,145.5 C 348.658,144.504 364.991,144.17 381.5,144.5C 381.5,189.5 381.5,234.5 381.5,279.5C 364.325,279.83 347.325,279.497 330.5,278.5C 347.167,278.5 363.833,278.5 380.5,278.5C 380.5,234.167 380.5,189.833 380.5,145.5C 364.5,145.5 348.5,145.5 332.5,145.5 Z"/></g>
<g><path style="opacity:1" fill="#b9e5ff" d="M 93.5,152.5 C 96.9619,151.518 100.629,151.185 104.5,151.5C 104.832,194.337 104.499,237.003 103.5,279.5C 103.5,237.167 103.5,194.833 103.5,152.5C 100.167,152.5 96.8333,152.5 93.5,152.5 Z"/></g>
<g><path style="opacity:1" fill="#b9e5ff" d="M 164.5,152.5 C 149.167,152.5 133.833,152.5 118.5,152.5C 118.5,196.833 118.5,241.167 118.5,285.5C 134.5,285.5 150.5,285.5 166.5,285.5C 150.342,286.496 134.009,286.83 117.5,286.5C 117.5,241.5 117.5,196.5 117.5,151.5C 133.342,151.17 149.009,151.504 164.5,152.5 Z"/></g>
<g><path style="opacity:1" fill="#fcfdfd" d="M 164.5,152.5 C 191.2,155.347 208.2,169.681 215.5,195.5C 200.292,193.504 185.959,196.004 172.5,203C 159.342,214.759 158.176,227.592 169,241.5C 169.5,241 170,240.5 170.5,240C 163.498,226.67 166.165,215.67 178.5,207C 181.948,205.073 185.615,203.739 189.5,203C 198.827,202.5 208.161,202.334 217.5,202.5C 221.8,226.856 216.633,248.856 202,268.5C 192.333,278.583 180.5,284.249 166.5,285.5C 150.5,285.5 134.5,285.5 118.5,285.5C 118.5,241.167 118.5,196.833 118.5,152.5C 133.833,152.5 149.167,152.5 164.5,152.5 Z"/></g>
<g><path style="opacity:1" fill="#bae5ff" d="M 395.5,150.5 C 395.5,193.167 395.5,235.833 395.5,278.5C 397.5,278.5 399.5,278.5 401.5,278.5C 399.393,279.468 397.059,279.802 394.5,279.5C 394.168,236.33 394.501,193.33 395.5,150.5 Z"/></g>
<g><path style="opacity:1" fill="#1f1f1f" d="M 131.5,160.5 C 133.167,160.5 134.833,160.5 136.5,160.5C 136.5,161.833 136.5,163.167 136.5,164.5C 135.5,164.5 134.5,164.5 133.5,164.5C 133.666,168.514 133.499,172.514 133,176.5C 129.911,178.949 129.911,181.282 133,183.5C 133.499,187.486 133.666,191.486 133.5,195.5C 134.5,195.5 135.5,195.5 136.5,195.5C 136.5,196.833 136.5,198.167 136.5,199.5C 133.956,199.896 131.789,199.229 130,197.5C 128.796,193.284 128.13,188.951 128,184.5C 123.716,181.892 123.549,179.225 127.5,176.5C 128.327,172.541 128.827,168.541 129,164.5C 129.662,163.016 130.496,161.683 131.5,160.5 Z"/></g>
<g><path style="opacity:1" fill="#111111" d="M 143.5,160.5 C 146.099,160.549 148.266,161.549 150,163.5C 150.333,167.5 150.667,171.5 151,175.5C 155.533,178.589 155.533,181.589 151,184.5C 150.667,188.5 150.333,192.5 150,196.5C 148.491,198.919 146.325,199.919 143.5,199.5C 143.275,197.284 144.108,195.617 146,194.5C 146.058,189.499 146.891,184.665 148.5,180C 146.891,175.335 146.058,170.501 146,165.5C 144.108,164.383 143.275,162.716 143.5,160.5 Z"/></g>
<g><path style="opacity:1" fill="#0b0b0c" d="M 317.5,192.5 C 317.666,201.506 317.5,210.506 317,219.5C 316.809,217.292 316.309,215.292 315.5,213.5C 314.527,208.353 311.527,204.853 306.5,203C 297.84,202.5 289.173,202.334 280.5,202.5C 281.219,200.236 281.552,197.903 281.5,195.5C 293.641,195.96 305.641,194.96 317.5,192.5 Z"/></g>
<g><path style="opacity:1" fill="#3a3a3a" d="M 315.5,213.5 C 316.309,215.292 316.809,217.292 317,219.5C 317.5,210.506 317.666,201.506 317.5,192.5C 318.499,201.082 318.832,210.415 318.5,220.5C 317.5,220.5 316.5,220.5 315.5,220.5C 315.5,218.167 315.5,215.833 315.5,213.5 Z"/></g>
<g><path style="opacity:1" fill="#686a6d" d="M 231.5,195.5 C 242.833,195.5 254.167,195.5 265.5,195.5C 265.5,195.833 265.5,196.167 265.5,196.5C 254.116,195.856 243.116,196.523 232.5,198.5C 231.596,197.791 231.263,196.791 231.5,195.5 Z"/></g>
<g><path style="opacity:1" fill="#0e0f0f" d="M 215.5,195.5 C 216.566,197.701 217.233,200.035 217.5,202.5C 208.161,202.334 198.827,202.5 189.5,203C 185.615,203.739 181.948,205.073 178.5,207C 166.165,215.67 163.498,226.67 170.5,240C 170,240.5 169.5,241 169,241.5C 158.176,227.592 159.342,214.759 172.5,203C 185.959,196.004 200.292,193.504 215.5,195.5 Z"/></g>
<g><path style="opacity:1" fill="#020304" d="M 265.5,196.5 C 264.85,198.435 264.517,200.435 264.5,202.5C 262.833,202.5 261.167,202.5 259.5,202.5C 259.17,221.674 259.503,240.674 260.5,259.5C 279.294,265.743 287.461,278.743 285,298.5C 281.537,311.965 273.203,320.965 260,325.5C 258.644,333.529 259.644,341.195 263,348.5C 267.193,352.012 272.026,354.012 277.5,354.5C 260.833,355.833 244.167,355.833 227.5,354.5C 240.219,352.948 246.219,345.782 245.5,333C 245.167,330.5 244.833,328 244.5,325.5C 224.528,318.568 216.028,304.568 219,283.5C 223.114,270.555 231.614,262.222 244.5,258.5C 245.497,240.007 245.83,221.341 245.5,202.5C 241.5,202.5 237.5,202.5 233.5,202.5C 233.167,201.167 232.833,199.833 232.5,198.5C 243.116,196.523 254.116,195.856 265.5,196.5 Z"/></g>
<g><path style="opacity:1" fill="#939393" d="M 233.5,203.5 C 233.5,203.167 233.5,202.833 233.5,202.5C 237.5,202.5 241.5,202.5 245.5,202.5C 245.83,221.341 245.497,240.007 244.5,258.5C 244.5,240.167 244.5,221.833 244.5,203.5C 240.833,203.5 237.167,203.5 233.5,203.5 Z"/></g>
<g><path style="opacity:1" fill="#a7a7a7" d="M 264.5,202.5 C 264.5,202.833 264.5,203.167 264.5,203.5C 263.167,203.5 261.833,203.5 260.5,203.5C 260.5,222.167 260.5,240.833 260.5,259.5C 259.503,240.674 259.17,221.674 259.5,202.5C 261.167,202.5 262.833,202.5 264.5,202.5 Z"/></g>
<g><path style="opacity:1" fill="#101010" d="M 301.5,208.5 C 310.865,207.936 312.865,211.436 307.5,219C 298.412,219.426 296.412,215.926 301.5,208.5 Z"/></g>
<g><path style="opacity:1" fill="#0a0a0a" d="M 173.5,220.5 C 182.158,219.327 185.992,222.994 185,231.5C 182.459,236.069 178.625,237.569 173.5,236C 168.227,230.743 168.227,225.577 173.5,220.5 Z"/></g>
<g><path style="opacity:1" fill="#5c5959" d="M 364.5,228.5 C 367.166,228.066 368.333,229.066 368,231.5C 364.403,233.066 363.237,232.066 364.5,228.5 Z"/></g>
<g><path style="opacity:1" fill="#5a5757" d="M 351.5,228.5 C 354.166,228.066 355.333,229.066 355,231.5C 351.403,233.066 350.237,232.066 351.5,228.5 Z"/></g>
<g><path style="opacity:1" fill="#605d5d" d="M 357.5,228.5 C 358.833,228.5 360.167,228.5 361.5,228.5C 361.5,229.833 361.5,231.167 361.5,232.5C 360.167,232.5 358.833,232.5 357.5,232.5C 357.5,231.167 357.5,229.833 357.5,228.5 Z"/></g>
<g><path style="opacity:1" fill="#7d7b7b" d="M 335.5,234.5 C 346.187,234.168 356.854,234.501 367.5,235.5C 362.167,235.833 356.833,236.167 351.5,236.5C 345.789,236.495 340.456,235.828 335.5,234.5 Z"/></g>
<g><path style="opacity:1" fill="#797676" d="M 335.5,238.5 C 337.604,238.201 339.604,238.534 341.5,239.5C 340.5,239.833 339.5,240.167 338.5,240.5C 336.97,240.36 335.97,239.693 335.5,238.5 Z"/></g>
<g><path style="opacity:1" fill="#605d5e" d="M 351.5,238.5 C 356.844,238.334 362.177,238.501 367.5,239C 368.467,243.401 368.8,247.901 368.5,252.5C 365.482,252.335 362.482,252.502 359.5,253C 360.576,254.726 360.743,256.559 360,258.5C 358.155,259.05 356.655,260.05 355.5,261.5C 358.171,264.545 357.504,266.878 353.5,268.5C 350.411,265.544 348.744,266.211 348.5,270.5C 346.167,270.5 343.833,270.5 341.5,270.5C 341.5,269.167 341.5,267.833 341.5,266.5C 339.35,266.905 337.35,267.405 335.5,268C 334.313,266.981 333.313,265.814 332.5,264.5C 333.95,263.15 334.617,261.484 334.5,259.5C 333.167,259.5 331.833,259.5 330.5,259.5C 330.5,257.5 330.5,255.5 330.5,253.5C 334.389,253.357 335.389,251.524 333.5,248C 335.164,244.279 337.831,243.446 341.5,245.5C 341.5,244.167 341.5,242.833 341.5,241.5C 343.833,241.5 346.167,241.5 348.5,241.5C 348.5,242.833 348.5,244.167 348.5,245.5C 350.869,245.149 353.203,244.982 355.5,245C 357.907,246.908 357.907,248.908 355.5,251C 355.833,251.5 356.167,252 356.5,252.5C 359.556,250.711 362.889,250.044 366.5,250.5C 366.5,247.167 366.5,243.833 366.5,240.5C 361.352,239.926 356.518,240.593 352,242.5C 351.51,241.207 351.343,239.873 351.5,238.5 Z"/></g>
<g><path style="opacity:1" fill="#eaeaea" d="M 348.5,264.5 C 347.058,265.82 346.392,267.486 346.5,269.5C 345.5,269.5 344.5,269.5 343.5,269.5C 342.779,264.582 340.112,263.248 335.5,265.5C 337.752,260.888 336.418,258.221 331.5,257.5C 331.5,256.5 331.5,255.5 331.5,254.5C 336.418,253.779 337.752,251.112 335.5,246.5C 340.112,248.752 342.779,247.418 343.5,242.5C 344.5,242.5 345.5,242.5 346.5,242.5C 346.297,244.39 346.963,245.89 348.5,247C 350.936,246.947 353.269,247.113 355.5,247.5C 354.48,249.432 354.313,251.432 355,253.5C 356.011,254.337 357.178,254.67 358.5,254.5C 358.5,255.5 358.5,256.5 358.5,257.5C 357.178,257.33 356.011,257.663 355,258.5C 354.893,261.131 354.727,263.631 354.5,266C 352.689,265.293 350.689,264.793 348.5,264.5 Z"/></g>
<g><path style="opacity:1" fill="#5d5a5a" d="M 348.5,264.5 C 339.126,264.643 335.626,260.31 338,251.5C 343.814,245.795 348.814,246.462 353,253.5C 353.667,255.5 353.667,257.5 353,259.5C 351.293,261.037 349.793,262.704 348.5,264.5 Z"/></g>
<g><path style="opacity:1" fill="#f6f6f6" d="M 342.5,249.5 C 349.825,248.992 352.658,252.326 351,259.5C 347,263.5 343,263.5 339,259.5C 337.581,255.082 338.748,251.749 342.5,249.5 Z"/></g>
<g><path style="opacity:1" fill="#35abee" d="M 232.5,277.5 C 237.121,276.993 241.454,277.826 245.5,280C 251.5,286 257.5,292 263.5,298C 271.669,299.82 275.502,296.653 275,288.5C 272.774,284.139 269.274,282.639 264.5,284C 262.023,285.643 259.69,287.476 257.5,289.5C 255.833,288.5 254.5,287.167 253.5,285.5C 257.946,278.404 264.279,275.904 272.5,278C 284.119,286.305 284.453,294.972 273.5,304C 269.167,306 264.833,306 260.5,304C 254.167,297.667 247.833,291.333 241.5,285C 233.024,281.808 228.857,284.642 229,293.5C 231.11,297.918 234.61,299.418 239.5,298C 241.977,296.357 244.31,294.524 246.5,292.5C 247.5,294.167 248.833,295.5 250.5,296.5C 243.019,307.102 234.519,308.102 225,299.5C 220.284,289.477 222.784,282.143 232.5,277.5 Z"/></g>
<g><path style="opacity:1" fill="#6cc7ff" d="M 173.5,315.5 C 177.5,315.5 181.5,315.5 185.5,315.5C 186.01,319.884 186.843,324.218 188,328.5C 189.157,324.218 189.99,319.884 190.5,315.5C 194.884,315.174 199.217,315.508 203.5,316.5C 199.892,327.706 196.725,339.039 194,350.5C 192.302,351.733 190.302,352.4 188,352.5C 185.698,352.4 183.698,351.733 182,350.5C 178.693,338.94 175.86,327.274 173.5,315.5 Z"/></g>
<g><path style="opacity:1" fill="#80ceff" d="M 371.5,324.5 C 371.167,324.5 370.833,324.5 370.5,324.5C 369.069,322.563 367.402,320.73 365.5,319C 360.264,317.661 354.93,317.161 349.5,317.5C 349.567,319.401 349.233,321.234 348.5,323C 350.394,330.667 351.06,338.5 350.5,346.5C 349.833,346.5 349.5,346.833 349.5,347.5C 348.672,341.347 348.172,335.013 348,328.5C 347.362,327.391 346.862,326.225 346.5,325C 347.406,322.209 348.073,319.376 348.5,316.5C 353.844,316.334 359.177,316.501 364.5,317C 367.717,318.715 370.05,321.215 371.5,324.5 Z"/></g>
<g><path style="opacity:1" fill="#61c2ff" d="M 92.5,315.5 C 113.656,313.489 121.823,322.822 117,343.5C 114.685,347.817 111.185,350.65 106.5,352C 102.179,352.499 97.8461,352.666 93.5,352.5C 93.5,343.833 93.5,335.167 93.5,326.5C 92.325,326.719 91.325,326.386 90.5,325.5C 91.802,322.292 92.4687,318.959 92.5,315.5 Z"/></g>
<g><path style="opacity:1" fill="#fdfeff" d="M 94.5,317.5 C 113.906,315.92 120.739,324.587 115,343.5C 113.878,345.624 112.378,347.457 110.5,349C 105.292,350.397 99.9586,350.897 94.5,350.5C 94.3148,339.426 94.3148,328.426 94.5,317.5 Z"/></g>
<g><path style="opacity:1" fill="#fcfeff" d="M 175.5,317.5 C 178.247,317.187 180.914,317.52 183.5,318.5C 184.761,322.061 185.594,325.728 186,329.5C 186.196,331.286 187.029,332.619 188.5,333.5C 189.833,328.5 191.167,323.5 192.5,318.5C 195.086,317.52 197.753,317.187 200.5,317.5C 197.675,328.465 195.009,339.465 192.5,350.5C 189.5,350.5 186.5,350.5 183.5,350.5C 180.991,339.465 178.325,328.465 175.5,317.5 Z"/></g>
<g><path style="opacity:1" fill="#fbfdff" d="M 370.5,324.5 C 371.934,334.676 367.601,339.676 357.5,339.5C 357.5,341.833 357.5,344.167 357.5,346.5C 355.167,346.5 352.833,346.5 350.5,346.5C 351.06,338.5 350.394,330.667 348.5,323C 349.233,321.234 349.567,319.401 349.5,317.5C 354.93,317.161 360.264,317.661 365.5,319C 367.402,320.73 369.069,322.563 370.5,324.5 Z"/></g>
<g><path style="opacity:1" fill="#88d1ff" d="M 301.5,321.5 C 299.122,325.466 297.622,329.799 297,334.5C 295.698,329.121 297.198,324.788 301.5,321.5 Z"/></g>
<g><path style="opacity:1" fill="#48baff" d="M 357.5,324.5 C 362.327,323.848 364.16,325.848 363,330.5C 362.107,329.289 361.274,329.289 360.5,330.5C 361.462,332.883 360.462,333.883 357.5,333.5C 357.5,330.5 357.5,327.5 357.5,324.5 Z"/></g>
<g><path style="opacity:1" fill="#57bfff" d="M 309.5,324.5 C 315.629,323.555 319.296,326.055 320.5,332C 319.296,338.106 315.629,340.439 309.5,339C 304.203,334.215 304.203,329.382 309.5,324.5 Z"/></g>
<g><path style="opacity:1" fill="#45b9ff" d="M 370.5,324.5 C 370.833,324.5 371.167,324.5 371.5,324.5C 376.43,336.101 372.763,342.768 360.5,344.5C 360.5,346.833 360.5,349.167 360.5,351.5C 357.102,351.82 353.768,351.487 350.5,350.5C 349.873,349.583 349.539,348.583 349.5,347.5C 349.5,346.833 349.833,346.5 350.5,346.5C 352.833,346.5 355.167,346.5 357.5,346.5C 357.5,344.167 357.5,341.833 357.5,339.5C 367.601,339.676 371.934,334.676 370.5,324.5 Z"/></g>
<g><path style="opacity:1" fill="#fbfdff" d="M 311.5,329.5 C 318.536,328.603 320.203,331.103 316.5,337C 312.642,339.54 309.976,338.707 308.5,334.5C 308.757,332.308 309.757,330.641 311.5,329.5 Z"/></g>
<g><path style="opacity:1" fill="#5bbfff" d="M 301.5,321.5 C 309.766,313.44 317.932,313.773 326,322.5C 332.857,332.8 331.69,341.967 322.5,350C 308.73,354.181 300.563,349.348 298,335.5C 301.699,344.934 308.532,348.434 318.5,346C 327.7,340.574 329.867,333.074 325,323.5C 317.681,316.318 309.848,315.651 301.5,321.5 Z"/></g>
<g><path style="opacity:1" fill="#59bfff" d="M 393.5,319.5 C 393.953,318.542 394.619,317.708 395.5,317C 401.4,314.527 407.233,314.361 413,316.5C 414.793,320.452 414.793,324.452 413,328.5C 412.25,329.126 411.416,329.626 410.5,330C 415.15,334.574 416.65,340.074 415,346.5C 413.833,347.667 412.667,348.833 411.5,350C 406.618,351.555 401.618,351.888 396.5,351C 391.217,347.708 390.051,343.208 393,337.5C 394.32,337.201 395.82,337.034 397.5,337C 392.18,333.19 390.014,328.024 391,321.5C 391.708,320.619 392.542,319.953 393.5,319.5 Z"/></g>
<g><path style="opacity:1" fill="#fbfdff" d="M 393.5,319.5 C 398.931,317.705 404.597,316.705 410.5,316.5C 410.682,318.591 410.348,320.591 409.5,322.5C 406.943,322.782 404.277,322.949 401.5,323C 398.833,324.667 398.833,326.333 401.5,328C 409.971,328.79 413.471,333.29 412,341.5C 410.773,343.726 408.939,345.226 406.5,346C 402.442,346.767 398.442,346.6 394.5,345.5C 393.146,342.933 393.48,340.599 395.5,338.5C 397.957,340.225 400.623,340.725 403.5,340C 404.833,338.333 404.833,336.667 403.5,335C 397.339,334.435 393.339,331.268 391.5,325.5C 392.178,323.484 392.844,321.484 393.5,319.5 Z"/></g>
<g><path style="opacity:1" fill="#5cc0ff" d="M 102.5,325.5 C 107.368,325.873 109.368,328.539 108.5,333.5C 109.184,338.503 107.184,341.503 102.5,342.5C 102.5,336.833 102.5,331.167 102.5,325.5 Z"/></g>
<g><path style="opacity:1" fill="#fafdff" d="M 104.5,327.5 C 105.117,327.611 105.617,327.944 106,328.5C 106.922,332.691 106.588,336.691 105,340.5C 104.501,336.179 104.334,331.846 104.5,327.5 Z"/></g>
<g><path style="opacity:1" fill="#62c3ff" d="M 148.5,314.5 C 151.833,314.5 155.167,314.5 158.5,314.5C 157.514,318.443 156.848,322.443 156.5,326.5C 153.5,326.5 150.5,326.5 147.5,326.5C 147.5,327.5 147.5,328.5 147.5,329.5C 150.833,329.5 154.167,329.5 157.5,329.5C 157.148,332.428 156.482,335.262 155.5,338C 152.854,338.497 150.187,338.664 147.5,338.5C 147.5,339.5 147.5,340.5 147.5,341.5C 150.833,341.5 154.167,341.5 157.5,341.5C 156.992,345.197 156.326,348.864 155.5,352.5C 149.167,352.5 142.833,352.5 136.5,352.5C 137.054,343.034 136.387,333.7 134.5,324.5C 135.108,321.855 135.608,319.188 136,316.5C 140.268,315.86 144.435,315.193 148.5,314.5 Z"/></g>
<g><path style="opacity:1" fill="#f9fdff" d="M 149.5,316.5 C 151.5,316.5 153.5,316.5 155.5,316.5C 155.425,319.206 155.092,321.873 154.5,324.5C 151.5,324.5 148.5,324.5 145.5,324.5C 145.5,326.5 145.5,328.5 145.5,330.5C 148.833,330.5 152.167,330.5 155.5,330.5C 155.167,332.5 154.833,334.5 154.5,336.5C 151.5,336.5 148.5,336.5 145.5,336.5C 145.5,338.5 145.5,340.5 145.5,342.5C 148.898,342.18 152.232,342.513 155.5,343.5C 154.626,345.747 154.292,348.08 154.5,350.5C 148.833,350.5 143.167,350.5 137.5,350.5C 137.315,339.424 137.315,328.424 137.5,317.5C 141.702,317.817 145.702,317.483 149.5,316.5 Z"/></g>
</svg>
